<svg xmlns="http://www.w3.org/2000/svg" fill="none" aria-hidden="true" viewBox="0 0 59 18"><path fill="currentColor" d="M16.484 0a.458.458 0 0 0-.458.458v17.09c0 .252.205.457.458.457H19.2a.458.458 0 0 0 .458-.458V.457A.458.458 0 0 0 19.201 0h-2.717ZM22.207 17.551c0 .253.205.458.458.458h2.774a.458.458 0 0 0 .458-.458v-7.248c0-.4.097-.757.287-1.075.19-.335.451-.606.785-.812.35-.207.738-.31 1.167-.31.429 0 .808.103 1.142.31.35.206.62.477.81.812.206.318.31.678.31 1.075v7.248c0 .253.205.458.457.458h2.775a.458.458 0 0 0 .458-.458v-7.248c0-.4.097-.757.286-1.075.19-.335.452-.606.786-.812a2.25 2.25 0 0 1 1.167-.31c.429 0 .808.103 1.142.31.334.206.596.477.785.812.207.318.31.678.31 1.075v7.248c0 .253.205.458.457.458h2.798a.458.458 0 0 0 .457-.458v-7.368c0-1.003-.237-1.902-.713-2.697-.476-.812-1.152-1.449-2.024-1.91-.874-.46-1.913-.692-3.12-.692-.603 0-1.172.04-1.696.183-.507.128-.97.344-1.398.582-.336.181-.64.497-.914.78l-.18.185h-.048l-.112-.12c-.278-.298-.606-.65-.983-.845a5.334 5.334 0 0 0-1.381-.55 6.135 6.135 0 0 0-1.666-.215c-1.206 0-2.247.231-3.119.692-.874.461-1.548 1.098-2.024 1.91-.46.795-.691 1.694-.691 2.697v7.368ZM8.706 17.526a.457.457 0 0 1-.458.457c-.631 0-1.708 0-1.825-.007-3.687-.191-6.556-2.906-6.418-6.634.12-3.232 2.543-5.978 5.738-6.457 4.195-.627 7.816 2.628 7.816 6.713a374.259 374.259 0 0 1-.026 3.314c-.008.942-.017 1.894-.02 2.609a.46.46 0 0 1-.459.457h-2.71a.456.456 0 0 1-.456-.457c.003-.935.015-2.26.028-3.454.01-1.052.018-2.046.018-2.47A3.166 3.166 0 0 0 5.82 8.58a3.06 3.06 0 0 0-2.05 2.042c-.623 2.084.841 4.014 2.82 4.13l.824.01a1.312 1.312 0 0 1 1.296 1.314l-.003 1.45ZM52.814 17.983a.457.457 0 0 0 .457-.457l.004-1.45c0-.72-.577-1.305-1.296-1.314l-.824-.01c-1.98-.116-3.444-2.046-2.82-4.13a3.06 3.06 0 0 1 2.05-2.042 3.166 3.166 0 0 1 4.115 3.018c0 .423-.008 1.417-.019 2.47a581.849 581.849 0 0 0-.027 3.453c-.001.253.204.457.456.457h2.71a.46.46 0 0 0 .459-.457c.003-.715.011-1.666.02-2.607l.008-.812c.01-1.108.018-2.065.018-2.504 0-4.085-3.62-7.34-7.816-6.713-3.195.479-5.619 3.225-5.738 6.457-.139 3.728 2.73 6.443 6.417 6.634.118.006 1.195.007 1.826.007Z"/></svg>